<?xml version="1.0" encoding="utf-8"?>
<!-- Generator: Adobe Illustrator 19.2.0, SVG Export Plug-In . SVG Version: 6.00 Build 0)  -->
<svg version="1.1" id="Calque_1" xmlns="http://www.w3.org/2000/svg" xmlns:xlink="http://www.w3.org/1999/xlink" x="0px" y="0px"
	 viewBox="0 0 729 182" style="enable-background:new 0 0 729 182;" xml:space="preserve">
<style type="text/css">
	.st0{fill:#DDB07F;}
	.st1{font-family:'Roboto-Light';}
	.st2{font-size:153.8416px;}
	.st3{fill:#424242;}
</style>
<text transform="matrix(1 0 0 1 7.001 146.1953)"><tspan x="0" y="0" class="st0 st1 st2">focus</tspan><tspan x="378.7" y="0" class="st3 st1 st2">.com</tspan></text>
<g>
	<g>
		<path class="st3" d="M108.8,83.2c-4.4,6.9-8.8,13.8-13.2,20.6c-0.5,0.9-0.6,2.2,0,3c2.8,4.1,5.6,8.2,8.3,12.3
			c2.1,3.2,7.3,0.2,5.2-3c-2.8-4.1-5.6-8.2-8.3-12.3c0,1,0,2,0,3c4.4-6.9,8.8-13.8,13.2-20.6C116,82.9,110.9,79.9,108.8,83.2
			L108.8,83.2z"/>
	</g>
</g>
</svg>
